<?xml version="1.0" encoding="UTF-8"?>
<svg id="Layer_1" data-name="Layer 1" xmlns="http://www.w3.org/2000/svg" viewBox="0 0 350.09 258.2">
  <defs>
    <style>
      .cls-1{fill:#999;}
      .cls-2{fill:#333;}
      .cls-2,.cls-3{fill-rule:evenodd;}
      .cls-3{fill:#bc0d1d;}
    </style>
  </defs>
  <path class="cls-1" d="M348.3,258.2H214.7a1.7,1.7,0,0,1,0-3.4H345.2L174.7,4.5,5.3,206.3H192.4a1.7,1.7,0,0,1,0,3.4H1.7a1.64,1.64,0,0,1-1.5-1,1.68,1.68,0,0,1,.2-1.8L173.6.6A1.68,1.68,0,0,1,175,0a1.71,1.71,0,0,1,1.3.7L349.8,255.5a1.51,1.51,0,0,1,.1,1.7A2,2,0,0,1,348.3,258.2Z" transform="translate(-0.03)"/>
  <path class="cls-2" d="M39.9,55.8C44,61.2,52,63.9,55.3,64c5.5.2,60.5-.1,66.5,0,13.6.1,32.6,10.7,32.7,30.1.1,33.2,0,95.5,0,95.5h41.9s-.2-57.3,0-95.5c.1-19.7,18.3-30.1,44.9-30.1,7.7,0,39-.1,52.7,0,4.2,0,11.3-2.8,15.5-8.2,3.4-4.4,4.6-7.9,4.3-13.4a18.64,18.64,0,0,0-4.3-11.3c-4.1-5.4-12.1-8.2-15.5-8.2H55.3C52,23,44,25.7,39.9,31.1a18.84,18.84,0,0,0-4.4,11.3C35.2,47.9,36.7,51.7,39.9,55.8Z" transform="translate(-0.03)"/>
  <path class="cls-3" d="M120.8,77.2H43.4c-8.6.3-7.9,10.6-7.9,10.6V96c1,11.2,14.1,10.3,19.8,6.2C71.8,90.5,88.1,91.9,88.1,91.9s16,.4,13.9,14c-1.5,9.8-14.3,9.8-14.3,9.8-6.7.7-52.7-3-52.2,40.1.3,26.5,22.2,33.8,34.1,33.8,14.8,0,32.7-8.7,32.7-8.7s10,8.5,16.7,8.7h21V96.1C139.1,77.7,120.8,77.2,120.8,77.2ZM88.2,164.1A14.1,14.1,0,1,1,102.3,150,14.08,14.08,0,0,1,88.2,164.1Z" transform="translate(-0.03)"/>
  <path class="cls-3" d="M313.8,222.1V96.1C313.3,76.6,297,77.9,297,77.9H241.3c-32.9,0-31.3,22.5-31.3,22.5v62c-.7,29.1,27.5,27.1,34,27.3,16.4.6,31.6-8.7,31.6-8.7l-.1,26.5c-.7,15.9-12.9,14.7-12.9,14.7-15,.1-15.1-14.7-15.1-14.7.4-4.9-9.7-3.1-13.4-3.3H221.7c-6.9.2-11.1-1.2-10.9,3.9v14.1c-.1,19,36.8,16.9,36.8,16.9h28C316.2,240.2,313.8,222.1,313.8,222.1Zm-38.3-73.2s0,14.5-13.7,14.4-13.7-14.4-13.7-14.4V102.3S248.4,92,261.8,92c13.7,0,13.7,10.3,13.7,10.3Z" transform="translate(-0.03)"/>
  <text x="37" y="257" fill="#333333" font-size="60" font-weight="bold" font-family="Century Gothic">H999</text>
</svg>