<?xml version="1.0" encoding="UTF-8" standalone="no"?>
<svg
   xmlns:dc="http://purl.org/dc/elements/1.1/"
   xmlns:cc="http://creativecommons.org/ns#"
   xmlns:rdf="http://www.w3.org/1999/02/22-rdf-syntax-ns#"
   xmlns:svg="http://www.w3.org/2000/svg"
   xmlns="http://www.w3.org/2000/svg"
   xmlns:sodipodi="http://sodipodi.sourceforge.net/DTD/sodipodi-0.dtd"
   xmlns:inkscape="http://www.inkscape.org/namespaces/inkscape"
   version="1.1"
   id="svg2"
   xml:space="preserve"
   width="419.79999"
   height="309.65332"
   viewBox="0 0 419.79999 309.65332"
   sodipodi:docname="atg2019_rgb.eps"><metadata
     id="metadata8"><rdf:RDF><cc:Work
         rdf:about=""><dc:format>image/svg+xml</dc:format><dc:type
           rdf:resource="http://purl.org/dc/dcmitype/StillImage" /></cc:Work></rdf:RDF></metadata><defs
     id="defs6" /><sodipodi:namedview
     pagecolor="#ffffff"
     bordercolor="#666666"
     borderopacity="1"
     objecttolerance="10"
     gridtolerance="10"
     guidetolerance="10"
     inkscape:pageopacity="0"
     inkscape:pageshadow="2"
     inkscape:window-width="640"
     inkscape:window-height="480"
     id="namedview4" /><g
     id="g10"
     inkscape:groupmode="layer"
     inkscape:label="ink_ext_XXXXXX"
     transform="matrix(1.3333333,0,0,-1.3333333,0,309.65333)"><g
       id="g12"
       transform="scale(0.1)"><path
         d="M 1931.26,15.1016 H 3133.38 L 1572.97,2307.31 15.0977,451.488 H 1730.62"
         style="fill:none;stroke:#959595;stroke-width:30.1987;stroke-linecap:round;stroke-linejoin:round;stroke-miterlimit:3.86371;stroke-dasharray:none;stroke-opacity:1"
         id="path14" /><path
         d="m 358.777,1820.3 c 37.461,-48.55 109.004,-72.44 139.102,-73.39 49.18,-1.53 544.591,0.57 598.471,0 121.99,-1.25 293.52,-96.27 293.81,-270.64 0.45,-298.82 0,-859.481 0,-859.481 h 376.68 c 0,0 -1.91,515.741 0,859.481 0.98,177.53 164.42,271.09 404.04,270.64 69.34,-0.11 350.84,0.45 474.43,0 38.01,-0.13 101.49,24.94 139.1,73.39 30.93,39.93 41.06,71.1 38.5,120.3 -2.2,42.34 -16.6,73.05 -38.5,101.66 -37.32,48.69 -108.98,73.44 -139.1,73.39 -103.99,-0.1 -2079.392,-0.08 -2147.431,0 -30.117,0.05 -101.926,-24.6 -139.102,-73.39 -24.074,-31.6 -36.972,-59.24 -39.211,-101.66 -2.601,-49.29 10.622,-83.21 39.211,-120.3"
         style="fill:#2e2d2d;fill-opacity:1;fill-rule:evenodd;stroke:none"
         id="path16" /><path
         d="m 918.918,695.34 c 0,0 95.052,-78.551 152.082,-78.551 h 188.54 v 841.341 c -0.36,103.47 -90.99,169.92 -172.69,170.23 -36.77,0.14 -179.264,0 -293.885,0 -3.36,0 -183.172,-0.31 -295.086,0 -35.227,0.1 -72.359,-0.31 -107.156,0 -41.184,0.36 -71.012,-31.18 -71.157,-95.76 -0.16,-81.6 -8.179,-107.52 38.52,-138.65 42.769,-28.51 90.285,-23.77 139.793,9.13 72.152,47.99 164.387,95.35 295.086,93.08 57.746,0 126.422,-35.75 125.953,-99.83 z m 1.629,0 -1.629,278 0.75,422.99 c 9.508,-61.27 -56.867,-113.4 -114.637,-113.4 -128.437,-11.01 -349.297,8.32 -456.468,-197.89 0,0 -28.997,-61.81 -28.997,-164.001 0,-178.199 135.375,-304.25 307.051,-304.25 130.699,0 293.93,78.551 293.93,78.551 z m -253.52,278 c 0,69.54 56.368,125.95 125.938,125.95 69.551,0 125.953,-56.41 125.953,-125.95 0,-69.559 -56.402,-125.961 -125.953,-125.961 -69.57,0 -125.938,56.402 -125.938,125.961"
         style="fill:#bc1e24;fill-opacity:1;fill-rule:evenodd;stroke:none"
         id="path18" /><path
         d="m 2478.62,695.34 c 0,-66.738 -0.78,-147.781 -0.78,-238.199 0,-9.481 -2.2,-132.582 -116.43,-132.582 -132.91,0 -135.64,127.871 -135.44,132.582 1.26,39.718 -68.53,29.429 -120.87,29.347 -28.84,-0.039 -25.55,0.203 -111.66,0 -77.32,-0.168 -98.45,5.731 -98.45,-35 V 324.559 C 1895.2,152.531 2225.97,172.48 2225.97,172.48 h 251.87 c 0,0 344.45,-21.449 345.07,152.079 V 1458.13 c 0,77.81 -28.77,101.07 -42.53,120.07 -19.62,27.19 -52.82,43.98 -109.06,43.89 h -193.48 z m -0.13,706.69 -0.28,220.06 h -145.45 c -147.8,0.06 -283.45,9.04 -358.24,-43.65 -52.75,-37.15 -86,-88.06 -86,-158.35 V 973.012 c 0,-183.051 -26.74,-355.891 305.63,-356.223 164.9,-0.109 283.69,78.551 283.69,78.551 l 0.37,277.672 c 0,-65.071 -51.73,-116.231 -116.8,-119.532 -68.57,-3.449 -128.56,50.872 -129.21,119.532 -1.5,150.038 -1.5,278.358 0,428.968 0.61,62.05 67.23,95.79 129.21,92.86 58.2,-2.75 117.08,-34.74 117.08,-92.81"
         style="fill:#bc1e24;fill-opacity:1;fill-rule:evenodd;stroke:none"
         id="path20" /></g></g></svg>
