<?xml version="1.0" encoding="UTF-8" standalone="no"?>
<svg
   xmlns:dc="http://purl.org/dc/elements/1.1/"
   xmlns:cc="http://creativecommons.org/ns#"
   xmlns:rdf="http://www.w3.org/1999/02/22-rdf-syntax-ns#"
   xmlns:svg="http://www.w3.org/2000/svg"
   xmlns="http://www.w3.org/2000/svg"
   viewBox="0 0 844.85333 90.653336"
   height="90.653336"
   width="844.85333"
   xml:space="preserve"
   id="svg2"
   version="1.1"><metadata
     id="metadata8"><rdf:RDF><cc:Work
         rdf:about=""><dc:format>image/svg+xml</dc:format><dc:type
           rdf:resource="http://purl.org/dc/dcmitype/StillImage" /></cc:Work></rdf:RDF></metadata><defs
     id="defs6" /><g
     transform="matrix(1.3333333,0,0,-1.3333333,0,90.653333)"
     id="g10"><g
       transform="scale(0.1)"
       id="g12"><path
         id="path14"
         style="fill:#2e2d2d;fill-opacity:1;fill-rule:nonzero;stroke:none"
         d="M 98.4414,376.176 V 243.641 h 24.6756 c 40.891,0 68.449,5.144 82.668,15.468 14.211,10.313 21.328,25.313 21.328,45 0,22.266 -8.347,39.84 -25.035,52.731 -16.683,12.887 -44.414,19.336 -83.195,19.336 z m 0,196.875 V 464.066 h 21.5276 c 23.992,0 41.82,5.039 53.461,15.118 11.648,10.074 17.472,23.785 17.472,41.132 0,16.172 -5.535,29.004 -16.593,38.497 -11.055,9.492 -27.875,14.238 -50.457,14.238 z M 0.00390625,149.773 V 666.918 H 81.3125 c 47.1675,0 81.6605,-3.047 103.4845,-9.141 30.976,-8.211 55.621,-23.437 73.922,-45.703 18.304,-22.269 27.457,-48.515 27.457,-78.75 0,-19.687 -4.168,-37.562 -12.481,-53.613 -8.324,-16.055 -21.855,-31.113 -40.605,-45.176 31.402,-14.765 54.367,-33.222 68.902,-55.371 14.535,-22.148 21.801,-48.34 21.801,-78.57 0,-29.063 -7.512,-55.547 -22.531,-79.453 C 286.246,197.234 266.891,179.352 243.195,167.527 219.5,155.691 186.766,149.773 145.008,149.773 H 0.00390625" /><path
         id="path16"
         style="fill:#2e2d2d;fill-opacity:1;fill-rule:nonzero;stroke:none"
         d="m 414.145,666.918 h 98.789 V 332.496 c 0,-28.797 2.511,-49.18 7.558,-61.121 5.039,-11.934 13.36,-21.484 24.957,-28.621 11.606,-7.152 25.61,-10.715 42.016,-10.715 17.344,0 32.281,3.977 44.82,11.941 12.535,7.961 21.211,18.086 26.02,30.383 4.797,12.293 7.207,35.774 7.207,70.43 v 322.125 h 98.789 v -308.32 c 0,-52.028 -2.938,-88.121 -8.789,-108.278 -5.86,-20.168 -17.051,-39.609 -33.574,-58.359 -16.528,-18.762 -35.571,-32.648 -57.129,-41.66 -21.571,-9.024 -46.641,-13.535 -75.235,-13.535 -37.5,0 -70.136,8.613 -97.914,25.839 -27.769,17.227 -47.633,38.79 -59.586,64.688 -11.957,25.891 -17.929,69.656 -17.929,131.305 v 308.32" /><path
         id="path18"
         style="fill:#bc1e26;fill-opacity:1;fill-rule:nonzero;stroke:none"
         d="M 879.613,673.246 H 975.59 V 532.27 h 56.95 V 449.652 H 975.59 V 149.773 h -95.977 v 299.879 h -49.218 v 82.618 h 49.218 v 140.976" /><path
         id="path20"
         style="fill:#bc1e26;fill-opacity:1;fill-rule:nonzero;stroke:none"
         d="m 1267.03,452.465 c -30.23,0 -55.19,-10.145 -74.88,-30.41 -19.69,-20.274 -29.53,-45.762 -29.53,-76.465 0,-31.871 10.07,-58.004 30.23,-78.395 20.16,-20.39 45.47,-30.586 75.94,-30.586 29.76,0 54.32,9.961 73.65,29.883 19.34,19.91 29.01,46.055 29.01,78.395 0,31.871 -9.73,57.773 -29.18,77.695 -19.46,19.914 -44.53,29.883 -75.24,29.883 z m 99.5,79.805 h 95.62 V 204.617 c 0,-64.687 -13.01,-112.2654 -39.02,-142.7342 C 1388.2,20.625 1335.59,0 1265.28,0 c -37.5,0 -69.03,4.6875 -94.57,14.0625 -25.55,9.375 -47.11,23.1523 -64.69,41.3164 -17.58,18.1641 -30.59,40.2539 -39.03,66.2691 h 105.82 c 9.37,-10.781 21.45,-18.925 36.22,-24.4332 14.76,-5.5078 32.22,-8.2617 52.38,-8.2617 25.78,0 46.52,3.9844 62.23,11.9529 15.69,7.969 26.77,18.282 33.22,30.938 6.44,12.656 9.67,34.453 9.67,65.39 -16.88,-16.875 -34.58,-29.004 -53.09,-36.386 -18.52,-7.383 -39.5,-11.075 -62.93,-11.075 -51.33,0 -94.69,18.504 -130.08,55.547 -35.39,37.032 -53.08,83.899 -53.08,140.621 0,60.7 18.75,109.454 56.25,146.25 33.98,33.278 74.53,49.922 121.64,49.922 22.02,0 42.83,-4.043 62.4,-12.129 19.56,-8.086 39.2,-21.39 58.89,-39.902 v 42.188" /><path
         id="path22"
         style="fill:#2e2d2d;fill-opacity:1;fill-rule:nonzero;stroke:none"
         d="m 1755.35,453.52 c -30.23,0 -55.31,-10.321 -75.23,-30.938 -19.92,-20.625 -29.88,-47.586 -29.88,-80.859 0,-33.981 9.96,-61.469 29.88,-82.438 19.92,-20.976 45,-31.465 75.23,-31.465 29.3,0 53.97,10.664 74.01,31.993 20.04,21.32 30.06,48.515 30.06,81.558 0,32.813 -9.85,59.707 -29.53,80.684 -19.69,20.968 -44.54,31.465 -74.54,31.465 z M 1654.46,679.926 V 490.082 c 17.34,17.344 36.08,30.352 56.25,39.023 20.15,8.665 41.71,13.008 64.68,13.008 49.92,0 92.34,-18.867 127.27,-56.601 34.92,-37.742 52.38,-86.133 52.38,-145.196 0,-56.949 -18.05,-104.586 -54.14,-142.906 -36.09,-38.32 -78.87,-57.48 -128.32,-57.48 -22.03,0 -42.54,3.925 -61.52,11.777 -18.99,7.852 -37.85,20.684 -56.6,38.496 v -40.43 h -95.28 v 530.153 h 95.28" /><path
         id="path24"
         style="fill:#2e2d2d;fill-opacity:1;fill-rule:nonzero;stroke:none"
         d="m 2090.48,341.02 h 48.89 l 48.32,-112.848 48.21,112.848 h 48.64 l -81.38,-191.247 h -31.12 l -81.56,191.247" /><path
         id="path26"
         style="fill:#2e2d2d;fill-opacity:1;fill-rule:nonzero;stroke:none"
         d="m 2304.49,341.02 h 146.43 L 2365,190.379 h 81 v -40.606 h -154.69 l 86.32,150.645 h -73.14 v 40.602" /><path
         id="path28"
         style="fill:#2e2d2d;fill-opacity:1;fill-rule:nonzero;stroke:none"
         d="m 2456.98,341.02 h 46.98 l 38.45,-108.805 41.38,108.805 h 28.73 l 40.64,-107.575 38.5,107.575 h 47.28 l -69.79,-191.247 h -30.41 l -40.78,108.985 -42.01,-108.985 h -30.06 l -68.91,191.247" /><path
         id="path30"
         style="fill:#2e2d2d;fill-opacity:1;fill-rule:nonzero;stroke:none"
         d="m 3005.16,384.965 h 178.59 v -89.293 h -178.59 v 89.293" /><path
         id="path32"
         style="fill:#2e2d2d;fill-opacity:1;fill-rule:nonzero;stroke:none"
         d="m 3502.61,666.918 h 98.79 V 332.496 c 0,-28.797 2.52,-49.18 7.56,-61.121 5.04,-11.934 13.36,-21.484 24.96,-28.621 11.6,-7.152 25.61,-10.715 42.01,-10.715 17.35,0 32.29,3.977 44.83,11.941 12.54,7.961 21.21,18.086 26.01,30.383 4.81,12.293 7.22,35.774 7.22,70.43 v 322.125 h 98.79 v -308.32 c 0,-52.028 -2.93,-88.121 -8.79,-108.278 -5.86,-20.168 -17.05,-39.609 -33.57,-58.359 -16.53,-18.762 -35.57,-32.648 -57.13,-41.66 -21.57,-9.024 -46.65,-13.535 -75.25,-13.535 -37.5,0 -70.13,8.613 -97.91,25.839 -27.77,17.227 -47.63,38.79 -59.59,64.688 -11.95,25.891 -17.93,69.656 -17.93,131.305 v 308.32" /><path
         id="path34"
         style="fill:#2e2d2d;fill-opacity:1;fill-rule:nonzero;stroke:none"
         d="M 4065.48,376.176 V 243.641 h 24.67 c 40.89,0 68.45,5.144 82.67,15.468 14.22,10.313 21.33,25.313 21.33,45 0,22.266 -8.34,39.84 -25.03,52.731 -16.69,12.887 -44.43,19.336 -83.2,19.336 z m 0,196.875 V 464.066 H 4087 c 23.99,0 41.83,5.039 53.47,15.118 11.65,10.074 17.47,23.785 17.47,41.132 0,16.172 -5.53,29.004 -16.6,38.497 -11.05,9.492 -27.87,14.238 -50.45,14.238 z m -98.44,-423.278 v 517.145 h 81.31 c 47.16,0 81.66,-3.047 103.48,-9.141 30.98,-8.211 55.62,-23.437 73.93,-45.703 18.3,-22.269 27.45,-48.515 27.45,-78.75 0,-19.687 -4.16,-37.562 -12.48,-53.613 -8.32,-16.055 -21.86,-31.113 -40.61,-45.176 31.41,-14.765 54.38,-33.222 68.91,-55.371 14.53,-22.148 21.8,-48.34 21.8,-78.57 0,-29.063 -7.51,-55.547 -22.53,-79.453 -15.02,-23.907 -34.37,-41.789 -58.07,-53.614 -23.7,-11.836 -56.43,-17.754 -98.19,-17.754 h -145" /><path
         id="path36"
         style="fill:#bc1e26;fill-opacity:1;fill-rule:nonzero;stroke:none"
         d="M 4593,529.809 4523.61,352.27 h 138.36 z m -50.53,137.109 h 99.82 L 4841.2,149.773 h -102.31 l -40.46,106.524 h -211.02 l -42.07,-106.524 h -102.31 l 199.44,517.145" /><path
         id="path38"
         style="fill:#bc1e26;fill-opacity:1;fill-rule:nonzero;stroke:none"
         d="m 4918.37,673.246 h 95.97 V 532.27 h 56.96 v -82.618 h -56.96 V 149.773 h -95.97 v 299.879 h -49.22 v 82.618 h 49.22 v 140.976" /><path
         id="path40"
         style="fill:#2e2d2d;fill-opacity:1;fill-rule:nonzero;stroke:none"
         d="m 5497.04,454.926 -79.9,-43.946 c -15.01,15.7 -29.86,26.594 -44.53,32.696 -14.66,6.094 -31.85,9.14 -51.56,9.14 -35.91,0 -64.95,-10.711 -87.12,-32.121 -22.17,-21.41 -33.26,-48.847 -33.26,-82.308 0,-32.532 10.68,-59.09 32.03,-79.676 21.35,-20.598 49.4,-30.891 84.12,-30.891 42.95,0 76.39,14.641 100.32,43.946 l 75.68,-51.817 c -41.02,-53.347 -98.91,-80.019 -173.67,-80.019 -67.27,0 -119.94,19.914 -158.03,59.765 -38.09,39.844 -57.13,86.485 -57.13,139.918 0,37.032 9.26,71.133 27.78,102.305 18.51,31.168 44.35,55.664 77.51,73.477 33.17,17.804 70.26,26.718 111.27,26.718 37.97,0 72.07,-7.558 102.31,-22.675 30.23,-15.118 54.96,-36.622 74.18,-64.512" /><path
         id="path42"
         style="fill:#2e2d2d;fill-opacity:1;fill-rule:nonzero;stroke:none"
         d="m 5750.69,301.648 c -14.83,0 -27.15,-5.246 -36.96,-15.73 -9.82,-10.488 -14.72,-23.938 -14.72,-40.344 0,-16.523 4.99,-30.117 14.98,-40.781 9.98,-10.664 22.28,-15.996 36.88,-15.996 15.07,0 27.57,5.246 37.49,15.73 9.93,10.493 14.89,24.231 14.89,41.223 0,16.641 -4.96,30.117 -14.89,40.43 -9.92,10.312 -22.48,15.468 -37.67,15.468 z m 50.45,39.372 h 47.99 V 149.773 h -47.99 v 20.215 c -9.37,-8.906 -18.76,-15.32 -28.18,-19.25 -9.43,-3.925 -19.63,-5.886 -30.64,-5.886 -24.7,0 -46.06,9.582 -64.08,28.742 -18.03,19.16 -27.04,42.976 -27.04,71.453 0,29.531 8.72,53.73 26.16,72.598 17.44,18.863 38.62,28.296 63.56,28.296 11.47,0 22.23,-2.168 32.3,-6.503 10.07,-4.336 19.38,-10.84 27.92,-19.508 v 21.09" /><path
         id="path44"
         style="fill:#2e2d2d;fill-opacity:1;fill-rule:nonzero;stroke:none"
         d="m 6014.71,314.305 -29.7,-29.707 c -12.07,11.953 -23.03,17.929 -32.87,17.929 -5.39,0 -9.61,-1.14 -12.66,-3.425 -3.05,-2.289 -4.57,-5.129 -4.57,-8.528 0,-2.578 0.97,-4.953 2.9,-7.121 1.93,-2.168 6.71,-5.125 14.33,-8.875 l 17.57,-8.789 c 18.52,-9.141 31.23,-18.457 38.15,-27.949 6.91,-9.492 10.37,-20.625 10.37,-33.399 0,-16.992 -6.24,-31.171 -18.72,-42.539 -12.48,-11.367 -29.21,-17.05 -50.19,-17.05 -27.89,0 -50.15,10.898 -66.79,32.695 l 29.53,32.168 c 5.62,-6.563 12.21,-11.863 19.77,-15.906 7.56,-4.043 14.27,-6.067 20.13,-6.067 6.33,0 11.43,1.524 15.29,4.571 3.87,3.046 5.8,6.562 5.8,10.546 0,7.383 -6.97,14.59 -20.91,21.621 l -16.18,8.086 c -30.93,15.586 -46.4,35.098 -46.4,58.536 0,15.117 5.83,28.039 17.49,38.753 11.66,10.723 26.57,16.086 44.73,16.086 12.43,0 24.12,-2.726 35.07,-8.175 10.96,-5.45 20.25,-13.266 27.86,-23.461" /><path
         id="path46"
         style="fill:#2e2d2d;fill-opacity:1;fill-rule:nonzero;stroke:none"
         d="m 6154.11,301.648 c -15.12,0 -27.66,-5.156 -37.62,-15.468 -9.96,-10.313 -14.94,-23.789 -14.94,-40.43 0,-16.992 4.98,-30.73 14.94,-41.223 9.96,-10.484 22.5,-15.73 37.62,-15.73 14.65,0 26.98,5.332 37,15.996 10.02,10.664 15.03,24.258 15.03,40.781 0,16.406 -4.92,29.856 -14.77,40.344 -9.84,10.484 -22.26,15.73 -37.26,15.73 z m -50.45,113.2 V 319.93 c 8.67,8.668 18.05,15.172 28.12,19.508 10.08,4.335 20.86,6.503 32.35,6.503 24.96,0 46.17,-9.433 63.63,-28.296 17.46,-18.868 26.19,-43.067 26.19,-72.598 0,-28.477 -9.02,-52.293 -27.07,-71.453 -18.04,-19.16 -39.43,-28.742 -64.16,-28.742 -11.01,0 -21.27,1.961 -30.76,5.886 -9.49,3.93 -18.93,10.344 -28.3,19.25 v -20.215 h -47.64 v 265.075 h 47.64" /><path
         id="path48"
         style="fill:#2e2d2d;fill-opacity:1;fill-rule:nonzero;stroke:none"
         d="m 6288.41,414.848 h 47.98 V 149.773 h -47.98 v 265.075" /></g></g></svg>